<?xml version="1.0" encoding="UTF-8" standalone="no"?>
<!DOCTYPE svg PUBLIC "-//W3C//DTD SVG 1.1//EN"
 "http://www.w3.org/Graphics/SVG/1.1/DTD/svg11.dtd">
<!-- Generated by graphviz version 5.0.0 (20220707.1540)
 -->
<!-- Title: dependencies Pages: 1 -->
<svg width="634pt" height="247pt"
 viewBox="0.00 0.00 634.00 246.80" xmlns="http://www.w3.org/2000/svg" xmlns:xlink="http://www.w3.org/1999/xlink">
<g id="graph0" class="graph" transform="scale(1 1) rotate(0) translate(4 242.8)">
<title>dependencies</title>
<polygon fill="white" stroke="transparent" points="-4,4 -4,-242.8 630,-242.8 630,4 -4,4"/>
<text text-anchor="middle" x="313" y="-8.2" font-family="sans-serif" font-size="14.00">dependencies</text>
<g id="clust1" class="cluster">
<title>cluster_TreatmentsModule</title>
<polygon fill="none" stroke="black" stroke-dasharray="1,5" points="8,-32.8 8,-230.8 618,-230.8 618,-32.8 8,-32.8"/>
</g>
<g id="clust2" class="cluster">
<title>cluster_TreatmentsModule_declarations</title>
<polygon fill="none" stroke="black" points="450,-40.8 450,-92.8 610,-92.8 610,-40.8 450,-40.8"/>
</g>
<g id="clust5" class="cluster">
<title>cluster_TreatmentsModule_exports</title>
<polygon fill="none" stroke="black" points="237,-170.8 237,-222.8 401,-222.8 401,-170.8 237,-170.8"/>
</g>
<g id="clust4" class="cluster">
<title>cluster_TreatmentsModule_imports</title>
<polygon fill="none" stroke="black" points="200,-40.8 200,-92.8 442,-92.8 442,-40.8 200,-40.8"/>
</g>
<g id="clust7" class="cluster">
<title>cluster_TreatmentsModule_providers</title>
<polygon fill="none" stroke="black" points="16,-40.8 16,-92.8 192,-92.8 192,-40.8 16,-40.8"/>
</g>
<!-- TreatmentsComponent -->
<g id="node1" class="node">
<title>TreatmentsComponent</title>
<polygon fill="#ffffb3" stroke="black" points="602.3,-84.8 457.7,-84.8 457.7,-48.8 602.3,-48.8 602.3,-84.8"/>
<text text-anchor="middle" x="530" y="-62.6" font-family="Times,serif" font-size="14.00">TreatmentsComponent</text>
</g>
<!-- TreatmentsModule -->
<g id="node2" class="node">
<title>TreatmentsModule</title>
<polygon fill="#8dd3c7" stroke="black" points="380.03,-149.8 377.03,-153.8 356.03,-153.8 353.03,-149.8 257.97,-149.8 257.97,-113.8 380.03,-113.8 380.03,-149.8"/>
<text text-anchor="middle" x="319" y="-127.6" font-family="Times,serif" font-size="14.00">TreatmentsModule</text>
</g>
<!-- TreatmentsComponent&#45;&gt;TreatmentsModule -->
<g id="edge1" class="edge">
<title>TreatmentsComponent&#45;&gt;TreatmentsModule</title>
<path fill="none" stroke="black" d="M530,-84.91C530,-104.14 530,-131.8 530,-131.8 530,-131.8 390.03,-131.8 390.03,-131.8"/>
<polygon fill="black" stroke="black" points="390.03,-128.3 380.03,-131.8 390.03,-135.3 390.03,-128.3"/>
</g>
<!-- TreatmentsComponent  -->
<g id="node5" class="node">
<title>TreatmentsComponent </title>
<polygon fill="#fb8072" stroke="black" points="392.8,-214.8 245.2,-214.8 245.2,-178.8 392.8,-178.8 392.8,-214.8"/>
<text text-anchor="middle" x="319" y="-192.6" font-family="Times,serif" font-size="14.00">TreatmentsComponent </text>
</g>
<!-- TreatmentsModule&#45;&gt;TreatmentsComponent  -->
<g id="edge4" class="edge">
<title>TreatmentsModule&#45;&gt;TreatmentsComponent </title>
<path fill="none" stroke="black" stroke-dasharray="5,2" d="M319,-149.91C319,-149.91 319,-168.79 319,-168.79"/>
<polygon fill="black" stroke="black" points="315.5,-168.79 319,-178.79 322.5,-168.79 315.5,-168.79"/>
</g>
<!-- FofErrorModule -->
<g id="node3" class="node">
<title>FofErrorModule</title>
<polygon fill="#8dd3c7" stroke="black" points="434.04,-84.8 431.04,-88.8 410.04,-88.8 407.04,-84.8 325.96,-84.8 325.96,-48.8 434.04,-48.8 434.04,-84.8"/>
<text text-anchor="middle" x="380" y="-62.6" font-family="Times,serif" font-size="14.00">FofErrorModule</text>
</g>
<!-- FofErrorModule&#45;&gt;TreatmentsModule -->
<g id="edge2" class="edge">
<title>FofErrorModule&#45;&gt;TreatmentsModule</title>
<path fill="none" stroke="black" d="M353,-84.91C353,-84.91 353,-103.79 353,-103.79"/>
<polygon fill="black" stroke="black" points="349.5,-103.79 353,-113.79 356.5,-103.79 349.5,-103.79"/>
</g>
<!-- LayoutModule -->
<g id="node4" class="node">
<title>LayoutModule</title>
<polygon fill="#8dd3c7" stroke="black" points="307.71,-84.8 304.71,-88.8 283.71,-88.8 280.71,-84.8 208.29,-84.8 208.29,-48.8 307.71,-48.8 307.71,-84.8"/>
<text text-anchor="middle" x="258" y="-62.6" font-family="Times,serif" font-size="14.00">LayoutModule</text>
</g>
<!-- LayoutModule&#45;&gt;TreatmentsModule -->
<g id="edge3" class="edge">
<title>LayoutModule&#45;&gt;TreatmentsModule</title>
<path fill="none" stroke="black" d="M282.67,-84.91C282.67,-84.91 282.67,-103.79 282.67,-103.79"/>
<polygon fill="black" stroke="black" points="279.17,-103.79 282.67,-113.79 286.17,-103.79 279.17,-103.79"/>
</g>
<!-- TreatmentService -->
<g id="node6" class="node">
<title>TreatmentService</title>
<ellipse fill="#fdb462" stroke="black" cx="104" cy="-66.8" rx="79.85" ry="18"/>
<text text-anchor="middle" x="104" y="-62.6" font-family="Times,serif" font-size="14.00">TreatmentService</text>
</g>
<!-- TreatmentService&#45;&gt;TreatmentsModule -->
<g id="edge5" class="edge">
<title>TreatmentService&#45;&gt;TreatmentsModule</title>
<path fill="none" stroke="black" d="M104,-84.91C104,-104.14 104,-131.8 104,-131.8 104,-131.8 247.96,-131.8 247.96,-131.8"/>
<polygon fill="black" stroke="black" points="247.96,-135.3 257.96,-131.8 247.96,-128.3 247.96,-135.3"/>
</g>
</g>
</svg>
