<?xml version="1.0" encoding="UTF-8" standalone="no"?>
<!DOCTYPE svg PUBLIC "-//W3C//DTD SVG 1.1//EN"
 "http://www.w3.org/Graphics/SVG/1.1/DTD/svg11.dtd">
<!-- Generated by graphviz version 5.0.0 (20220707.1540)
 -->
<!-- Title: dependencies Pages: 1 -->
<svg width="699pt" height="247pt"
 viewBox="0.00 0.00 699.00 246.80" xmlns="http://www.w3.org/2000/svg" xmlns:xlink="http://www.w3.org/1999/xlink">
<g id="graph0" class="graph" transform="scale(1 1) rotate(0) translate(4 242.8)">
<title>dependencies</title>
<polygon fill="white" stroke="transparent" points="-4,4 -4,-242.8 695,-242.8 695,4 -4,4"/>
<text text-anchor="middle" x="345.5" y="-8.2" font-family="sans-serif" font-size="14.00">dependencies</text>
<g id="clust1" class="cluster">
<title>cluster_AppModule</title>
<polygon fill="none" stroke="black" stroke-dasharray="1,5" points="8,-32.8 8,-230.8 683,-230.8 683,-32.8 8,-32.8"/>
</g>
<g id="clust6" class="cluster">
<title>cluster_AppModule_bootstrap</title>
<polygon fill="none" stroke="black" points="282,-170.8 282,-222.8 406,-222.8 406,-170.8 282,-170.8"/>
</g>
<g id="clust4" class="cluster">
<title>cluster_AppModule_imports</title>
<polygon fill="none" stroke="black" points="146,-40.8 146,-92.8 675,-92.8 675,-40.8 146,-40.8"/>
</g>
<g id="clust2" class="cluster">
<title>cluster_AppModule_declarations</title>
<polygon fill="none" stroke="black" points="16,-40.8 16,-92.8 138,-92.8 138,-40.8 16,-40.8"/>
</g>
<!-- AppComponent -->
<g id="node1" class="node">
<title>AppComponent</title>
<polygon fill="#ffffb3" stroke="black" points="129.94,-84.8 24.06,-84.8 24.06,-48.8 129.94,-48.8 129.94,-84.8"/>
<text text-anchor="middle" x="77" y="-62.6" font-family="Times,serif" font-size="14.00">AppComponent</text>
</g>
<!-- AppModule -->
<g id="node2" class="node">
<title>AppModule</title>
<polygon fill="#8dd3c7" stroke="black" points="385.66,-149.8 382.66,-153.8 361.66,-153.8 358.66,-149.8 302.34,-149.8 302.34,-113.8 385.66,-113.8 385.66,-149.8"/>
<text text-anchor="middle" x="344" y="-127.6" font-family="Times,serif" font-size="14.00">AppModule</text>
</g>
<!-- AppComponent&#45;&gt;AppModule -->
<g id="edge1" class="edge">
<title>AppComponent&#45;&gt;AppModule</title>
<path fill="none" stroke="black" d="M77,-85.08C77,-106.12 77,-137.8 77,-137.8 77,-137.8 292.28,-137.8 292.28,-137.8"/>
<polygon fill="black" stroke="black" points="292.28,-141.3 302.28,-137.8 292.28,-134.3 292.28,-141.3"/>
</g>
<!-- AppComponent  -->
<g id="node7" class="node">
<title>AppComponent </title>
<polygon fill="#80b1d3" stroke="black" points="398.44,-214.8 289.56,-214.8 289.56,-178.8 398.44,-178.8 398.44,-214.8"/>
<text text-anchor="middle" x="344" y="-192.6" font-family="Times,serif" font-size="14.00">AppComponent </text>
</g>
<!-- AppModule&#45;&gt;AppComponent  -->
<g id="edge6" class="edge">
<title>AppModule&#45;&gt;AppComponent </title>
<path fill="none" stroke="black" stroke-dasharray="1,5" d="M344,-149.91C344,-149.91 344,-168.79 344,-168.79"/>
<polygon fill="black" stroke="black" points="340.5,-168.79 344,-178.79 347.5,-168.79 340.5,-168.79"/>
</g>
<!-- AppRoutingModule -->
<g id="node3" class="node">
<title>AppRoutingModule</title>
<polygon fill="#8dd3c7" stroke="black" points="667.28,-84.8 664.28,-88.8 643.28,-88.8 640.28,-84.8 538.72,-84.8 538.72,-48.8 667.28,-48.8 667.28,-84.8"/>
<text text-anchor="middle" x="603" y="-62.6" font-family="Times,serif" font-size="14.00">AppRoutingModule</text>
</g>
<!-- AppRoutingModule&#45;&gt;AppModule -->
<g id="edge2" class="edge">
<title>AppRoutingModule&#45;&gt;AppModule</title>
<path fill="none" stroke="black" d="M603,-85.08C603,-106.12 603,-137.8 603,-137.8 603,-137.8 395.9,-137.8 395.9,-137.8"/>
<polygon fill="black" stroke="black" points="395.9,-134.3 385.9,-137.8 395.9,-141.3 395.9,-134.3"/>
</g>
<!-- FofErrorModule -->
<g id="node4" class="node">
<title>FofErrorModule</title>
<polygon fill="#8dd3c7" stroke="black" points="520.04,-84.8 517.04,-88.8 496.04,-88.8 493.04,-84.8 411.96,-84.8 411.96,-48.8 520.04,-48.8 520.04,-84.8"/>
<text text-anchor="middle" x="466" y="-62.6" font-family="Times,serif" font-size="14.00">FofErrorModule</text>
</g>
<!-- FofErrorModule&#45;&gt;AppModule -->
<g id="edge3" class="edge">
<title>FofErrorModule&#45;&gt;AppModule</title>
<path fill="none" stroke="black" d="M466,-84.82C466,-102.17 466,-125.8 466,-125.8 466,-125.8 395.99,-125.8 395.99,-125.8"/>
<polygon fill="black" stroke="black" points="395.99,-122.3 385.99,-125.8 395.99,-129.3 395.99,-122.3"/>
</g>
<!-- LayoutModule -->
<g id="node5" class="node">
<title>LayoutModule</title>
<polygon fill="#8dd3c7" stroke="black" points="393.71,-84.8 390.71,-88.8 369.71,-88.8 366.71,-84.8 294.29,-84.8 294.29,-48.8 393.71,-48.8 393.71,-84.8"/>
<text text-anchor="middle" x="344" y="-62.6" font-family="Times,serif" font-size="14.00">LayoutModule</text>
</g>
<!-- LayoutModule&#45;&gt;AppModule -->
<g id="edge4" class="edge">
<title>LayoutModule&#45;&gt;AppModule</title>
<path fill="none" stroke="black" d="M344,-84.91C344,-84.91 344,-103.79 344,-103.79"/>
<polygon fill="black" stroke="black" points="340.5,-103.79 344,-113.79 347.5,-103.79 340.5,-103.79"/>
</g>
<!-- TreatmentsModule -->
<g id="node6" class="node">
<title>TreatmentsModule</title>
<polygon fill="#8dd3c7" stroke="black" points="276.03,-84.8 273.03,-88.8 252.03,-88.8 249.03,-84.8 153.97,-84.8 153.97,-48.8 276.03,-48.8 276.03,-84.8"/>
<text text-anchor="middle" x="215" y="-62.6" font-family="Times,serif" font-size="14.00">TreatmentsModule</text>
</g>
<!-- TreatmentsModule&#45;&gt;AppModule -->
<g id="edge5" class="edge">
<title>TreatmentsModule&#45;&gt;AppModule</title>
<path fill="none" stroke="black" d="M215,-84.82C215,-102.17 215,-125.8 215,-125.8 215,-125.8 292.12,-125.8 292.12,-125.8"/>
<polygon fill="black" stroke="black" points="292.12,-129.3 302.12,-125.8 292.12,-122.3 292.12,-129.3"/>
</g>
</g>
</svg>
