<?xml version="1.0" encoding="UTF-8" standalone="no"?>
<!DOCTYPE svg PUBLIC "-//W3C//DTD SVG 1.1//EN"
 "http://www.w3.org/Graphics/SVG/1.1/DTD/svg11.dtd">
<!-- Generated by graphviz version 5.0.0 (20220707.1540)
 -->
<!-- Title: dependencies Pages: 1 -->
<svg width="186pt" height="174pt"
 viewBox="0.00 0.00 186.00 173.80" xmlns="http://www.w3.org/2000/svg" xmlns:xlink="http://www.w3.org/1999/xlink">
<g id="graph0" class="graph" transform="scale(1 1) rotate(0) translate(4 169.8)">
<title>dependencies</title>
<polygon fill="white" stroke="transparent" points="-4,4 -4,-169.8 182,-169.8 182,4 -4,4"/>
<text text-anchor="middle" x="89" y="-8.2" font-family="sans-serif" font-size="14.00">dependencies</text>
<g id="clust1" class="cluster">
<title>cluster_FofErrorModule</title>
<polygon fill="none" stroke="black" stroke-dasharray="1,5" points="8,-32.8 8,-157.8 170,-157.8 170,-32.8 8,-32.8"/>
</g>
<g id="clust2" class="cluster">
<title>cluster_FofErrorModule_declarations</title>
<polygon fill="none" stroke="black" points="16,-40.8 16,-92.8 162,-92.8 162,-40.8 16,-40.8"/>
</g>
<!-- FofErrorComponent -->
<g id="node1" class="node">
<title>FofErrorComponent</title>
<polygon fill="#ffffb3" stroke="black" points="154.32,-84.8 23.68,-84.8 23.68,-48.8 154.32,-48.8 154.32,-84.8"/>
<text text-anchor="middle" x="89" y="-62.6" font-family="Times,serif" font-size="14.00">FofErrorComponent</text>
</g>
<!-- FofErrorModule -->
<g id="node2" class="node">
<title>FofErrorModule</title>
<polygon fill="#8dd3c7" stroke="black" points="143.04,-149.8 140.04,-153.8 119.04,-153.8 116.04,-149.8 34.96,-149.8 34.96,-113.8 143.04,-113.8 143.04,-149.8"/>
<text text-anchor="middle" x="89" y="-127.6" font-family="Times,serif" font-size="14.00">FofErrorModule</text>
</g>
<!-- FofErrorComponent&#45;&gt;FofErrorModule -->
<g id="edge1" class="edge">
<title>FofErrorComponent&#45;&gt;FofErrorModule</title>
<path fill="none" stroke="black" d="M89,-84.91C89,-84.91 89,-103.79 89,-103.79"/>
<polygon fill="black" stroke="black" points="85.5,-103.79 89,-113.79 92.5,-103.79 85.5,-103.79"/>
</g>
</g>
</svg>
